<svg xmlns="http://www.w3.org/2000/svg" viewBox="0 0 800 400" width="800" height="400">
  <!-- KAIF LAKE Logo - White version with transparent background -->
  
  <!-- Circular wave/spiral element at top -->
  <g transform="translate(400,150)">
    <!-- Outer circle/wave -->
    <path d="M -100 0 
             Q -100 -80, -20 -80
             T 80 -60
             Q 120 -40, 100 0
             Q 80 60, 0 60
             T -80 40
             Q -100 20, -100 0 Z" 
          fill="white" opacity="0.9"/>
    
    <!-- Inner spiral -->
    <path d="M -60 0
             Q -60 -50, 0 -50
             Q 50 -50, 50 0
             Q 50 40, 0 40
             Q -40 40, -40 10
             Q -40 -20, -10 -20
             Q 20 -20, 20 0
             Q 20 20, 0 20"
          fill="none" stroke="white" stroke-width="15" opacity="1"/>
    
    <!-- Center circle -->
    <circle cx="0" cy="0" r="25" fill="white"/>
    <circle cx="0" cy="-5" r="18" fill="transparent"/>
  </g>
  
  <!-- KAIF text -->
  <g transform="translate(400,280)">
    <!-- K -->
    <path d="M -320 -40 L -320 40 L -300 40 L -300 5 L -280 40 L -260 40 L -285 0 L -260 -40 L -280 -40 L -300 -5 L -300 -40 Z" 
          fill="white"/>
    
    <!-- A -->
    <path d="M -200 40 L -220 -40 L -200 -40 L -190 -10 L -180 -40 L -160 -40 L -180 40 L -200 40 Z
             M -195 10 L -185 10 L -185 20 L -195 20 Z" 
          fill="white"/>
    
    <!-- I -->
    <rect x="-120" y="-40" width="20" height="80" fill="white"/>
    
    <!-- F -->
    <path d="M -60 -40 L -60 40 L -40 40 L -40 -40 Z
             M -40 -40 L 0 -40 L 0 -25 L -40 -25 Z
             M -40 -5 L -10 -5 L -10 10 L -40 10 Z" 
          fill="white"/>
  </g>
  
  <!-- LAKE text (spaced out) -->
  <g transform="translate(400,350)" font-family="Arial, sans-serif" font-size="48" font-weight="300" fill="white" text-anchor="middle">
    <text x="-240" y="0">L</text>
    <text x="-80" y="0">A</text>
    <text x="80" y="0">K</text>
    <text x="240" y="0">E</text>
  </g>
</svg>